<?xml version="1.0" encoding="UTF-8"?>
<svg id="Layer_1" xmlns="http://www.w3.org/2000/svg" viewBox="0 0 517.07 158.36">
  <defs>
    <style>
      .cls-1 {
        fill: #fff;
      }
    </style>
  </defs>
  <g>
    <g>
      <path class="cls-1" d="M140.56,61.29h10.69v13.81h23.5v-13.81h10.69v36.64h-10.69v-14.92h-23.5v14.92h-10.69v-36.64Z"/>
      <path class="cls-1" d="M192.06,61.29h10.69v36.64h-10.69v-36.64Z"/>
      <path class="cls-1" d="M209.37,61.29h18.65c17.21,0,23,7.96,23,18.32,0,11.75-5.9,18.32-21.38,18.32h-20.27v-36.64ZM229.31,90.02c7.91,0,11.02-3.68,11.02-10.41,0-5.79-3.12-10.41-11.75-10.41h-8.52v20.82h9.24Z"/>
      <path class="cls-1" d="M256.42,61.29h10.69v36.64h-10.69v-36.64Z"/>
      <path class="cls-1" d="M271.68,61.29h12.19l14.53,28.06h.06l14.31-28.06h10.91l-19.6,36.64h-12.81l-19.6-36.64Z"/>
      <path class="cls-1" d="M327.97,61.29h34.63v7.91h-23.94v7.18h18.37v6.24h-18.37v7.41h24.5v7.91h-35.19v-36.64Z"/>
    </g>
    <g>
      <path class="cls-1" d="M377.24,61.21h4.68v32.41h19.27v4.23h-23.94v-36.64Z"/>
      <path class="cls-1" d="M431.53,88.93h-18.99l-3.62,8.91h-4.9l15.48-36.64h5.57l15.48,36.64h-5.46l-3.56-8.91ZM430.14,85.48l-7.96-19.99h-.11l-8.13,19.99h16.2Z"/>
      <path class="cls-1" d="M446.4,61.21h14.92c8.52,0,12.47,3.73,12.47,9.58,0,4.23-2.12,7.29-6.46,7.85v.06c5.07.45,7.85,3.79,7.85,8.57,0,6.46-3.56,10.58-12.53,10.58h-16.26v-36.64ZM461.93,77.3c5.18,0,7.52-2.28,7.52-5.9s-2.39-6.07-8.18-6.07h-10.19v11.97h10.86ZM462.49,93.72c6.29,0,8.13-2.67,8.13-6.9,0-3.67-3.01-6.07-8.35-6.07h-11.19v12.97h11.41Z"/>
    </g>
  </g>
  <g>
    <g>
      <path class="cls-1" d="M83.04,85.37v8.72h3.12v-8.73c-.5.14-1.02.22-1.57.22s-1.06-.08-1.56-.21Z"/>
      <path class="cls-1" d="M79.49,82.65l-7.94,8.18,2.24,2.17,7.93-8.17c-.93-.51-1.7-1.27-2.23-2.18Z"/>
      <path class="cls-1" d="M89.68,76.63l5.63-5.81-2.24-2.17-5.63,5.81c.93.51,1.7,1.26,2.24,2.17Z"/>
      <path class="cls-1" d="M90.31,81.21h10.7v-3.12h-10.7c.14.5.22,1.03.22,1.57s-.08,1.06-.21,1.55Z"/>
      <path class="cls-1" d="M78.89,78.08h-9.25v3.12h9.25c-.13-.5-.21-1.01-.21-1.55s.08-1.07.22-1.57Z"/>
      <path class="cls-1" d="M81.72,74.47l-3.41-3.47-2.23,2.19,3.4,3.47c.54-.91,1.31-1.67,2.23-2.19Z"/>
      <path class="cls-1" d="M87.49,84.82l5.05,5.15,2.23-2.19-5.06-5.16c-.53.91-1.3,1.67-2.22,2.19Z"/>
      <path class="cls-1" d="M86.16,73.94v-11.4h-3.12v11.39c.5-.13,1.02-.21,1.56-.21s1.07.08,1.57.22Z"/>
    </g>
    <path class="cls-1" d="M126.43,77.7c-.19-.25-4.65-6.24-11.94-12.28-9.78-8.1-20.03-12.38-29.64-12.38h-.07c-9.68,0-19.99,4.29-29.82,12.4-7.32,6.04-11.79,12.01-11.97,12.26l-1.1,1.48,1.1,1.49c.19.25,4.65,6.24,11.94,12.28,9.78,8.1,20.03,12.38,29.64,12.38h.07c9.67,0,19.99-4.29,29.82-12.4,7.32-6.04,11.79-12.01,11.97-12.26l1.1-1.48-1.1-1.49ZM84.71,99.69c-11.33,0-20.51-9.18-20.51-20.51s9.18-20.51,20.51-20.51,20.51,9.18,20.51,20.51-9.18,20.51-20.51,20.51Z"/>
  </g>
</svg>